<?xml version="1.0" encoding="UTF-8"?>
<svg xmlns="http://www.w3.org/2000/svg" viewBox="0 0 1200 630" font-family="-apple-system, BlinkMacSystemFont, 'SF Pro Text', Inter, Segoe UI, sans-serif">
  <defs>
    <linearGradient id="bg" x1="0" y1="0" x2="1" y2="1">
      <stop offset="0" stop-color="#020617"/>
      <stop offset="1" stop-color="#1e1b4b"/>
    </linearGradient>
    <linearGradient id="accent" x1="0" y1="0" x2="1" y2="0">
      <stop offset="0" stop-color="#7c3aed"/>
      <stop offset="1" stop-color="#ec4899"/>
    </linearGradient>
    <filter id="glow">
      <feGaussianBlur stdDeviation="3" result="b"/>
      <feMerge><feMergeNode in="b"/><feMergeNode in="SourceGraphic"/></feMerge>
    </filter>
  </defs>
  <rect width="1200" height="630" fill="url(#bg)"/>

  <!-- Decorative grid -->
  <g opacity="0.08" stroke="#94a3b8">
    <line x1="0" y1="100" x2="1200" y2="100"/>
    <line x1="0" y1="200" x2="1200" y2="200"/>
    <line x1="0" y1="300" x2="1200" y2="300"/>
    <line x1="0" y1="400" x2="1200" y2="400"/>
    <line x1="0" y1="500" x2="1200" y2="500"/>
    <line x1="200" y1="0" x2="200" y2="630"/>
    <line x1="400" y1="0" x2="400" y2="630"/>
    <line x1="600" y1="0" x2="600" y2="630"/>
    <line x1="800" y1="0" x2="800" y2="630"/>
    <line x1="1000" y1="0" x2="1000" y2="630"/>
  </g>

  <!-- Brand -->
  <g transform="translate(80,100)">
    <text fill="#e2e8f0" font-size="72" font-weight="800" letter-spacing="-2">SecScan</text>
    <rect x="2" y="90" width="110" height="4" fill="url(#accent)"/>
    <text x="0" y="130" fill="#cbd5e1" font-size="22" font-weight="500">I pointed a local LLM at 12 repos.</text>
    <text x="0" y="162" fill="#cbd5e1" font-size="22" font-weight="500">It found two remote-exploitable vulns.</text>
    <text x="0" y="194" fill="#cbd5e1" font-size="22" font-weight="500">I spun them up in Docker and proved it.</text>
  </g>

  <!-- Stat cards -->
  <g transform="translate(80,340)">
    <rect width="250" height="140" rx="16" fill="#0f172a" stroke="#334155"/>
    <text x="24" y="40" fill="#94a3b8" font-size="13" font-weight="600" letter-spacing="1">REPOS SCANNED</text>
    <text x="24" y="100" fill="#e2e8f0" font-size="64" font-weight="800">12</text>
    <text x="24" y="122" fill="#64748b" font-size="13">in one overnight run</text>
  </g>

  <g transform="translate(350,340)">
    <rect width="250" height="140" rx="16" fill="#0f172a" stroke="#ef4444"/>
    <text x="24" y="40" fill="#ef4444" font-size="13" font-weight="600" letter-spacing="1">LIVE EXPLOITS</text>
    <text x="24" y="100" fill="#fecaca" font-size="64" font-weight="800">2</text>
    <text x="24" y="122" fill="#fca5a5" font-size="13">proven by Docker PoC</text>
  </g>

  <g transform="translate(620,340)">
    <rect width="250" height="140" rx="16" fill="#0f172a" stroke="#334155"/>
    <text x="24" y="40" fill="#94a3b8" font-size="13" font-weight="600" letter-spacing="1">SCAN PASSES</text>
    <text x="24" y="100" fill="#e2e8f0" font-size="64" font-weight="800">4</text>
    <text x="24" y="122" fill="#64748b" font-size="13">per repo · arch + threat + deps + secrets</text>
  </g>

  <g transform="translate(890,340)">
    <rect width="230" height="140" rx="16" fill="#0f172a" stroke="#7c3aed"/>
    <text x="24" y="40" fill="#a78bfa" font-size="13" font-weight="600" letter-spacing="1">CODE SHIPPED TO CLOUD</text>
    <text x="24" y="100" fill="#e2e8f0" font-size="52" font-weight="800">0 bytes</text>
    <text x="24" y="122" fill="#64748b" font-size="13">runs entirely local</text>
  </g>

  <!-- Footer -->
  <g transform="translate(80,540)">
    <rect width="14" height="14" rx="3" fill="url(#accent)"/>
    <text x="24" y="12" fill="#cbd5e1" font-size="16" font-weight="600">SecScan</text>
    <text x="24" y="34" fill="#64748b" font-size="13">open source · local-LLM-powered · MIT</text>
  </g>
</svg>
